<svg width="13" height="14" viewBox="0 0 13 14" fill="none" xmlns="http://www.w3.org/2000/svg">
<path fill-rule="evenodd" clip-rule="evenodd" d="M6.46107 0.833496C6.01855 0.833496 5.58392 0.951256 5.20232 1.17479C4.8207 1.39833 4.50585 1.71958 4.29094 2.10551L0.328749 9.47099C0.112767 9.84568 -0.000694563 10.2704 3.19896e-06 10.7027C0.00070561 11.138 0.117077 11.5651 0.3371 11.9409C0.55711 12.3167 0.872855 12.6278 1.25209 12.8429C1.6308 13.0577 2.05958 13.1693 2.49521 13.1668L10.536 13.1668L10.5402 13.1668C10.9733 13.1632 11.398 13.0468 11.7721 12.829C12.1461 12.6113 12.4566 12.2996 12.6722 11.9249C12.8878 11.5502 13.0009 11.1256 13 10.6935C12.9991 10.2636 12.8853 9.84155 12.6702 9.46912L8.63272 2.10833L8.63116 2.10553C8.41624 1.7196 8.10144 1.39833 7.71982 1.17479C7.33823 0.951256 6.90359 0.833496 6.46107 0.833496ZM6.49997 11.3335C7.05225 11.3335 7.49997 10.8858 7.49997 10.3335C7.49997 9.78121 7.05225 9.3335 6.49997 9.3335C5.94768 9.3335 5.49997 9.78121 5.49997 10.3335C5.49997 10.8858 5.94768 11.3335 6.49997 11.3335ZM5.875 3.66687V8.33354H7.125V3.66687H5.875Z" fill="#DD2727"/>
</svg>
