<svg width="15" height="14" viewBox="0 0 15 14" fill="none" xmlns="http://www.w3.org/2000/svg">
<path fill-rule="evenodd" clip-rule="evenodd" d="M14.5 7.00002C14.5 10.866 11.366 14 7.50002 14C3.63402 14 0.5 10.866 0.5 7.00002C0.5 3.13402 3.63402 0 7.50002 0C11.366 0 14.5 3.13402 14.5 7.00002ZM6.87503 11V6.00003H8.12503V11H6.87503ZM7.50003 4.50003C8.05232 4.50003 8.50003 4.05232 8.50003 3.50003C8.50003 2.94775 8.05232 2.50003 7.50003 2.50003C6.94775 2.50003 6.50003 2.94775 6.50003 3.50003C6.50003 4.05232 6.94775 4.50003 7.50003 4.50003Z" fill="#505050"/>
</svg>
